<!--?xml version="1.0" encoding="utf-8"?-->
<!-- Generator: Adobe Illustrator 18.1.1, SVG Export Plug-In . SVG Version: 6.00 Build 0)  -->

<svg version="1.1" id="_x32_" xmlns="http://www.w3.org/2000/svg" xmlns:xlink="http://www.w3.org/1999/xlink" x="0px" y="0px" viewBox="0 0 512 512" style="width: 256px; height: 256px;" xml:space="preserve">
<style>
.st0 {
	fill: #ccc;
}
</style>
<g>
	<path class="st0" d="M472.729,203.658c-5.277-7.477-14.546-11.022-23.465-8.938L352.8,217.25V32.44
		c0.009-17.894-14.517-32.422-32.432-32.422L191.628,0c-17.924,0.019-32.44,14.546-32.44,32.44v184.83l-96.455-22.549
		c-8.908-2.084-18.196,1.442-23.464,8.938c-5.267,7.477-5.471,17.408-0.506,25.1l197.01,272.901
		c4.693,6.484,12.219,10.34,20.232,10.34s15.539-3.856,20.222-10.34l197-272.901C478.2,221.066,478.006,211.136,472.729,203.658z"></path>
</g>
</svg>
